<?xml version="1.0" encoding="UTF-8" standalone="no"?>
<!-- Created with Inkscape (http://www.inkscape.org/) -->

<svg
   version="1.1"
   id="svg1"
   width="1520.4797"
   height="292.58524"
   viewBox="0 0 1520.4798 292.58524"
   xmlns="http://www.w3.org/2000/svg"
   xmlns:svg="http://www.w3.org/2000/svg">
  <defs
     id="defs1">
    <clipPath
       clipPathUnits="userSpaceOnUse"
       id="clipPath13">
      <path
         d="M 0,341.62 H 1100.11 V 0 H 0 Z"
         transform="translate(-296.42451,-172.17601)"
         id="path13" />
    </clipPath>
    <clipPath
       clipPathUnits="userSpaceOnUse"
       id="clipPath15">
      <path
         d="M 0,341.62 H 1100.11 V 0 H 0 Z"
         transform="translate(-232.38961,-267.80771)"
         id="path15" />
    </clipPath>
    <clipPath
       clipPathUnits="userSpaceOnUse"
       id="clipPath17">
      <path
         d="M 0,341.62 H 1100.11 V 0 H 0 Z"
         transform="translate(-122.20671,-236.63431)"
         id="path17" />
    </clipPath>
    <clipPath
       clipPathUnits="userSpaceOnUse"
       id="clipPath19">
      <path
         d="M 0,341.62 H 1100.11 V 0 H 0 Z"
         transform="translate(-117.495,-121.51351)"
         id="path19" />
    </clipPath>
    <clipPath
       clipPathUnits="userSpaceOnUse"
       id="clipPath21">
      <path
         d="M 0,341.62 H 1100.11 V 0 H 0 Z"
         transform="translate(-225.1954,-81.860705)"
         id="path21" />
    </clipPath>
  </defs>
  <path
     id="path12"
     d="m 0,0 v 0 c 1.104,3.005 2.142,6.323 3.014,9.839 v 0 C 15.425,-2.193 20.455,-12.66 13.315,-25.357 5.134,-41.848 -32.768,-69.221 -50.814,-72.11 c 2.78,6.99 39.967,81.895 -12.419,126.995 28.42,-10.17 49.405,-30.511 52.717,-33.265 0.018,-25.369 -7.695,-45.257 -11.521,-56.247 C 0.177,-26.332 9.806,-11.907 0,0"
     style="fill:#e4843a;fill-opacity:1;fill-rule:nonzero;stroke:none"
     transform="matrix(1.3333333,0,0,-1.3333333,273.36248,144.06706)"
     clip-path="url(#clipPath13)" />
  <path
     id="path14"
     d="m 0,0 v 0 c -2.517,1.979 -5.352,3.991 -8.426,5.907 v 0 C 6.852,13.993 18.361,15.542 28.231,4.828 41.386,-8.049 55.707,-52.555 52.878,-70.61 47.09,-65.806 -12.658,-7.292 -71.739,-43.178 -53.284,-19.292 -27.454,-5.619 -23.811,-3.32 0.322,-11.143 16.853,-24.624 26.122,-31.659 25.098,-7.969 14.354,5.646 0,0"
     style="fill:#a37fb8;fill-opacity:1;fill-rule:nonzero;stroke:none"
     transform="matrix(1.3333333,0,0,-1.3333333,187.98261,16.558133)"
     clip-path="url(#clipPath15)" />
  <path
     id="path16"
     d="m 0,0 v 0 c -2.66,-1.782 -5.45,-3.856 -8.221,-6.189 v 0 c -2.97,17.03 -0.886,28.454 12.354,34.53 16.311,8.532 63.064,8.399 79.361,0.129 C 77.137,24.45 3.024,-14.292 18.896,-81.57 1.882,-56.638 -3.14,-27.847 -4.2,-23.672 10.697,-3.138 28.627,8.418 38.181,15.06 15.334,21.407 -0.934,15.396 0,0"
     style="fill:#87b7e0;fill-opacity:1;fill-rule:nonzero;stroke:none"
     transform="matrix(1.3333333,0,0,-1.3333333,41.072076,58.122663)"
     clip-path="url(#clipPath17)" />
  <path
     id="path18"
     d="m 0,0 v 0 c 0.873,-3.08 1.984,-6.375 3.345,-9.731 v 0 c -17.113,2.438 -27.335,7.95 -29.022,22.419 -3.074,18.15 11.5,62.573 24.401,75.518 C 0.583,80.917 14.527,-1.541 83.417,-7.236 54.447,-15.712 25.513,-11.591 21.215,-11.31 6.29,9.204 0.84,29.827 -2.525,40.967 -15.621,21.199 -14.931,3.869 0,0"
     style="fill:#99b535;fill-opacity:1;fill-rule:nonzero;stroke:none"
     transform="matrix(1.3333333,0,0,-1.3333333,34.789806,211.61706)"
     clip-path="url(#clipPath19)" />
  <path
     id="path20"
     d="m 0,0 v 0 c 3.199,-0.121 6.676,-0.083 10.289,0.174 v 0 C 2.681,-15.348 -5.719,-23.366 -20.002,-20.499 -38.213,-17.814 -75.959,9.774 -84.283,26.044 -76.776,25.56 5.954,13.34 32.659,77.099 31.768,46.927 18.908,20.683 17.312,16.682 -6.81,8.826 -28.108,10.016 -39.742,10.258 -24.988,-8.305 -8.294,-13.005 0,0"
     style="fill:#f0cf35;fill-opacity:1;fill-rule:nonzero;stroke:none"
     transform="matrix(1.3333333,0,0,-1.3333333,178.39034,264.48746)"
     clip-path="url(#clipPath21)" />
  <path
     style="font-weight:500;font-size:266.667px;font-family:Avenir;-inkscape-font-specification:'Avenir Medium';white-space:pre;fill:#535353;stroke-width:0;stroke-linejoin:round;stroke-miterlimit:5.4;stroke-opacity:0"
     d="m 331.94501,49.293372 h 33.60005 L 469.54518,204.49356 h 0.53334 V 49.293372 h 25.60003 V 238.09361 H 463.14517 L 358.07838,82.893417 h -0.53333 V 238.09361 H 331.94501 Z M 650.07859,238.09361 h -24.00001 v -19.46669 h -0.53333 q -4.53334,10.13334 -15.73336,16.53335 -11.20001,6.13334 -25.86669,6.13334 -9.33335,0 -17.60003,-2.93334 -8.26667,-2.66667 -14.66668,-8.53334 -6.13334,-5.86667 -9.86668,-14.93335 -3.73334,-9.33335 -3.73334,-21.8667 v -81.33343 h 24.00003 v 74.66676 q 0,8.80001 2.40001,15.20002 2.4,6.13334 6.4,10.13334 4.00001,3.73334 9.06668,5.60001 5.33334,1.6 10.93335,1.6 7.46667,0 13.86668,-2.4 6.40001,-2.4 11.20002,-7.46668 4.8,-5.33334 7.46667,-13.33335 2.66667,-8.00001 2.66667,-18.93335 v -65.06675 h 24.00001 z m 42.4,-188.800238 h 121.8668 v 24.00003 h -96.2668 v 56.266738 h 89.6001 v 24.00003 h -89.6001 v 60.53341 h 101.0668 v 24.00003 h -126.6668 z m 191.467,121.333488 -44.8001,-58.93341 h 30.9334 l 30.6667,44.80006 30.1333,-44.80006 h 29.0667 l -43.2,58.93341 51.2001,67.46675 h -30.9334 l -37.3334,-53.06674 -37.3334,53.06674 h -29.6 z m 171.46661,-38.13338 h -34.4001 v 57.3334 q 0,5.33334 0.2667,10.66668 0.2667,5.06667 1.8667,9.33334 1.8666,4.00001 5.3333,6.66668 3.7333,2.4 10.6667,2.4 4.2667,0 8.8,-0.8 4.5333,-0.8 8.2667,-2.93334 v 21.8667 q -4.2667,2.4 -11.2,3.2 -6.6667,1.06667 -10.4001,1.06667 -13.8666,0 -21.6,-3.73334 -7.4667,-4 -11.2,-10.13334 -3.46671,-6.13334 -4.26671,-13.60002 -0.5333,-7.73334 -0.5333,-15.46669 v -65.86674 h -27.7334 v -20.80003 h 27.7334 V 76.226737 h 24.00001 v 35.466713 h 34.4001 z m 30.9335,-20.80003 h 24.0001 v 19.46669 h 0.5333 q 2.4,-5.06667 6.4,-9.06668 4,-4.26667 8.8,-7.2 5.0667,-2.93334 10.9334,-4.53334 5.8666,-1.86667 11.7333,-1.86667 5.8667,0 10.6667,1.6 l -1.0667,25.8667 q -2.9333,-0.8 -5.8666,-1.33334 -2.9334,-0.53333 -5.8667,-0.53333 -17.6,0 -26.9334,9.86668 -9.3333,9.86668 -9.3333,30.6667 v 63.46675 h -24.0001 z m 99.2004,15.46669 q 10.1333,-9.33335 23.4667,-13.86669 13.3333,-4.8 26.6667,-4.8 13.8666,0 23.7333,3.46667 10.1334,3.46667 16.5334,9.33334 6.4,5.86668 9.3333,13.60002 3.2,7.46668 3.2,15.73335 v 64.53341 q 0,6.66668 0.2667,12.26669 0.2667,5.6 0.8,10.66668 h -21.3334 q -0.8,-9.60002 -0.8,-19.20003 h -0.5333 q -8,12.26668 -18.9334,17.33336 -10.9333,5.06667 -25.3333,5.06667 -8.8,0 -16.8,-2.4 -8.0001,-2.40001 -14.1334,-7.20001 -5.8667,-4.80001 -9.3333,-11.73335 -3.4667,-7.20001 -3.4667,-16.53335 0,-12.26668 5.3333,-20.53336 5.6,-8.26668 14.9334,-13.33335 9.6,-5.33334 22.1333,-7.46668 12.8001,-2.4 27.2001,-2.4 h 17.6 v -5.33334 q 0,-4.80001 -1.8667,-9.60001 -1.8666,-4.80001 -5.6,-8.53335 -3.7333,-4 -9.3333,-6.13334 -5.6,-2.4 -13.3334,-2.4 -6.9333,0 -12.2667,1.33334 -5.0666,1.33333 -9.3333,3.46667 -4.2667,1.86667 -7.7333,4.53334 -3.4667,2.66667 -6.6667,5.06667 z m 67.7334,50.13339 q -8.5334,0 -17.6,1.06667 -8.8,0.8 -16.2667,3.46667 -7.2,2.66667 -12,7.46668 -4.5334,4.8 -4.5334,12.26668 0,10.93334 7.2,15.73335 7.4667,4.80001 20.0001,4.80001 9.8666,0 16.8,-3.20001 6.9333,-3.46667 11.2,-8.80001 4.2667,-5.33334 6.1333,-11.73335 1.8667,-6.66667 1.8667,-13.06668 v -8.00001 z m 160.5333,-32.00004 q -6.6667,-6.93334 -14.1333,-10.40001 -7.2001,-3.73334 -17.3334,-3.73334 -9.8667,0 -17.3334,3.73334 -7.2,3.46667 -12.2666,9.86668 -4.8,6.13334 -7.4667,14.40002 -2.4,8.00001 -2.4,16.80002 0,8.80001 2.9333,16.80002 2.9334,7.73334 8.2667,13.60001 5.3333,5.86668 12.8,9.33335 7.4667,3.2 16.8,3.2 10.1334,0 17.3334,-3.46667 7.2,-3.73334 13.3333,-10.66668 l 17.0667,17.06669 q -9.3333,10.40001 -21.8667,14.93335 -12.2666,4.53334 -26.1333,4.53334 -14.6667,0 -26.9334,-4.80001 -12,-4.8 -20.8,-13.33335 -8.8,-8.80001 -13.6,-20.80002 -4.8,-12.26668 -4.8,-26.93337 0,-14.66668 4.8,-26.93336 4.8,-12.26669 13.3333,-21.0667 8.8,-8.80001 20.8,-13.60001 12.2667,-5.06668 27.2001,-5.06668 13.8667,0 26.4,5.06668 12.8,4.8 22.1334,14.93335 z m 105.8669,-12.80001 h -34.4 v 57.3334 q 0,5.33334 0.2667,10.66668 0.2666,5.06667 1.8666,9.33334 1.8667,4.00001 5.3334,6.66668 3.7333,2.4 10.6667,2.4 4.2666,0 8.8,-0.8 4.5333,-0.8 8.2666,-2.93334 v 21.8667 q -4.2666,2.4 -11.2,3.2 -6.6666,1.06667 -10.4,1.06667 -13.8667,0 -21.6,-3.73334 -7.4667,-4 -11.2,-10.13334 -3.4667,-6.13334 -4.2667,-13.60002 -0.5333,-7.73334 -0.5333,-15.46669 v -65.86674 h -27.7334 v -20.80003 h 27.7334 V 76.226737 h 24 v 35.466713 h 34.4 z"
     id="text21"
     aria-label="NuExtract" />
</svg>